<svg xmlns="http://www.w3.org/2000/svg" width="1792" height="1792" id="hand"><path d="M761.6 195.308q-44.8 0-74.2 31.733-29.4 31.733-29.4 76.533 0 13.067 2.8 26.134l140 582.4h-24.267L668.267 462.24q-8.4-35.467-36.867-57.867t-64.867-22.4q-43.866 0-73.733 31.734-29.867 31.733-29.867 75.6 0 10.266 3.734 27.066 2.8 12.134 36.4 150.267 33.6 138.133 63.466 263.2 29.867 125.067 29.867 128.8v211.867L309.867 1055.84q-31.734-24.267-71.867-24.267-48.533 0-83.533 34.067t-35 82.6q0 62.533 52.266 102.667l473.2 353.733q31.734 24.267 70.934 24.267H1363.6q30.8 0 55.067-19.134 24.266-19.133 31.733-49l93.333-374.266q7.467-28 9.334-82.134 1.866-54.133 8.4-80.266l108.266-446.134q2.8-11.2 2.8-24.266 0-42.934-30.8-73.734-30.8-30.8-74.666-30.8-35.467 0-64.4 23.8-28.934 23.8-37.334 58.334l-92.4 380.8h-24.266l123.2-510.534q2.8-13.066 2.8-26.133 0-43.867-29.867-74.667-29.867-30.8-74.667-30.8-35.466 0-63.933 22.4t-36.867 57.867L1134 912.108h-118.533L862.4 275.574q-8.4-35.466-36.867-57.866-28.466-22.4-63.933-22.4zm602 1553.066H715.867q-79.334 0-142.8-47.6l-473.2-354.666Q53.2 1310.64 26.6 1258.374 0 1206.108 0 1148.241q0-98 70-167.067 70-69.066 168-69.066 23.333 0 46.2 5.133 22.867 5.133 38.733 10.267Q338.8 932.64 361.2 946.64q22.4 14 32.667 21.467 10.266 7.466 35.933 27.533t35 26.6L350 544.374q-6.533-32.666-6.533-55.066 0-86.8 56-151.2 56-64.4 141.866-73.734 13.067-81.2 75.134-134.866Q678.533 75.84 761.6 75.84q77.467 0 138.133 48.067 60.667 48.066 79.334 123.666l96.133 399.467 77.467-324.8q18.666-75.6 79.333-123.667 60.667-48.066 138.133-48.066 81.2 0 142.334 50.4 61.133 50.4 77 129.733 86.8 9.333 144.666 72.8Q1792 466.908 1792 553.708q0 28-6.533 53.2l-108.267 445.2q-4.667 20.533-4.667 62.533 0 47.6-12.133 100.8l-94.267 374.267q-17.733 70-74.2 114.333-56.466 44.333-128.333 44.333z"></path></svg>