<svg xmlns="http://www.w3.org/2000/svg" width="1792" height="1792" id="hand"><path d="M1007.125 232q53.375 0 101.5 24.332t79.625 66.914l500.5 678.695Q1792 1140.113 1792 1313.915v308.497q0 69.52-49 118.185-49 48.665-119 48.665h-336q-70 0-119-48.665-49-48.664-49-118.185v-153.814L869.75 1344.33H392q-70 0-119-48.665-49-48.664-49-118.185v-27.808q0-103.412 73.938-176.843Q371.875 899.398 476 899.398h367.5l36.75-111.233H280q-87.5 0-151.813-58.658-64.312-58.658-71.312-144.69Q0 516.165 0 426.657V398.85q0-69.52 49-118.185Q98 232 168 232h839.125zM1680 1622.412v-308.498q0-136.434-81.375-246.798L1097.25 388.421q-34.125-45.188-90.125-45.188H168q-22.75 0-39.375 16.511T112 398.85q0 27.809 1.313 43.016 1.312 15.208 8.312 35.195 7 19.987 21.875 37.367 8.75-26.939 31.063-43.45 22.312-16.511 49.437-16.511h728v27.808H224q-22.75 0-39.375 16.511T168 537.891q0 38.236 2.625 50.402 7 38.236 38.5 63.438 31.5 25.2 70.875 25.2h639.625q35 0 59.5 24.333 24.5 24.332 24.5 59.093 0 13.035-4.375 26.07l-56 166.85q-8.75 25.2-30.625 41.277t-49 16.077H476q-57.75 0-98.875 40.843Q336 1092.318 336 1149.672v27.808q0 22.594 16.625 39.106 16.625 16.51 39.375 16.51h490.875q14 0 25.375 6.084l277.375 137.303q21 11.297 33.688 31.284 12.687 19.987 12.687 43.45v171.195q0 22.594 16.625 39.105 16.625 16.512 39.375 16.512h336q22.75 0 39.375-16.512 16.625-16.51 16.625-39.105z"></path></svg>